<?xml version="1.0" standalone="no"?>
<!DOCTYPE svg PUBLIC "-//W3C//DTD SVG 20010904//EN"
 "http://www.w3.org/TR/2001/REC-SVG-20010904/DTD/svg10.dtd">
<svg version="1.0" xmlns="http://www.w3.org/2000/svg"
 width="512.000000pt" height="512.000000pt" viewBox="0 0 512.000000 512.000000"
 preserveAspectRatio="xMidYMid meet">

<g transform="translate(0.000000,512.000000) scale(0.100000,-0.100000)"
fill="#000000" stroke="none">
<path d="M2295 5108 c-49 -5 -157 -22 -238 -39 -1197 -240 -2057 -1289 -2057
-2509 0 -678 271 -1333 749 -1811 393 -392 884 -637 1451 -726 162 -25 558
-25 720 0 568 89 1059 334 1451 726 392 392 637 883 726 1451 25 162 25 558 0
720 -128 817 -590 1486 -1302 1883 -283 158 -658 274 -989 306 -128 13 -382
12 -511 -1z m704 -1113 c104 -23 244 -71 323 -111 l66 -33 257 66 256 66 21
-20 20 -20 -236 -999 c-129 -550 -243 -1044 -252 -1098 -29 -176 -7 -304 63
-354 82 -58 249 -63 446 -13 39 11 73 18 75 16 5 -5 -36 -177 -45 -185 -22
-22 -418 -172 -487 -185 -113 -22 -269 -20 -348 5 -153 47 -259 169 -290 334
-7 36 -16 66 -20 66 -4 0 -56 -43 -115 -96 -174 -156 -394 -290 -558 -341 -84
-25 -350 -25 -445 1 -309 84 -517 326 -607 706 -20 86 -26 140 -30 301 -6 233
5 351 52 534 95 369 282 688 558 951 226 216 512 367 792 419 106 19 399 14
504 -10z"/>
<path d="M2685 3813 c-187 -29 -343 -121 -516 -301 -246 -256 -415 -631 -474
-1056 -18 -129 -21 -433 -5 -546 44 -314 171 -469 409 -501 233 -31 447 62
725 317 l78 71 179 759 c110 467 179 778 179 810 0 215 -119 378 -314 428 -62
16 -211 27 -261 19z"/>
</g>
</svg>
